<svg width="476" height="417" viewBox="0 0 476 417" fill="none" xmlns="http://www.w3.org/2000/svg">
<g clip-path="url(#clip0_16_808)">
<path d="M476 99.0948H473.71V36.3277C473.71 26.693 469.879 17.4529 463.061 10.6401C456.242 3.82737 446.994 4.73876e-09 437.351 4.73874e-09H304.253C299.478 -7.7047e-05 294.75 0.93949 290.339 2.76506C285.928 4.59062 281.92 7.26643 278.543 10.6397C275.167 14.013 272.489 18.0177 270.661 22.4251C268.834 26.8326 267.894 31.5565 267.894 36.3271V380.672C267.894 390.307 271.724 399.547 278.543 406.36C285.361 413.173 294.609 417 304.252 417H437.349C446.992 417 456.24 413.173 463.059 406.36C469.877 399.547 473.708 390.307 473.708 380.672V143.773H475.998L476 99.0948Z" fill="#3F3D56"/>
<path d="M466.295 33.8945V383.104C466.293 390.409 463.389 397.415 458.22 402.581C453.05 407.747 446.04 410.65 438.728 410.653H302.9C295.586 410.654 288.571 407.752 283.398 402.586C278.225 397.42 275.318 390.412 275.315 383.104V33.8945C275.318 26.587 278.225 19.5796 283.398 14.4135C288.57 9.24742 295.585 6.34575 302.899 6.34668H319.375C318.566 8.33453 318.258 10.4905 318.479 12.6251C318.699 14.7597 319.441 16.8076 320.638 18.5887C321.836 20.3699 323.454 21.8298 325.349 22.8401C327.243 23.8504 329.358 24.3802 331.505 24.3829H408.944C411.091 24.3802 413.206 23.8504 415.1 22.8401C416.995 21.8298 418.613 20.3699 419.811 18.5887C421.008 16.8076 421.75 14.7597 421.97 12.6251C422.191 10.4905 421.883 8.33453 421.074 6.34668H438.723C446.034 6.34792 453.046 9.24994 458.216 14.4147C463.386 19.5795 466.292 26.5843 466.295 33.8892V33.8945Z" fill="white"/>
<path d="M372.262 173.6C356.797 173.606 341.964 167.474 331.024 156.553C320.084 145.631 313.934 130.816 313.927 115.364V115.313C313.927 115.191 313.927 115.062 313.934 114.94C314.11 83.0218 340.28 57.0294 372.262 57.0294C387.733 57.0286 402.571 63.1684 413.512 74.0983C424.452 85.0281 430.599 99.8527 430.6 115.311C430.601 130.769 424.455 145.594 413.516 156.525C402.577 167.456 387.74 173.597 372.268 173.598H372.262V173.6ZM372.262 58.2557C357.185 58.2894 342.731 64.2661 332.039 74.8873C321.348 85.5085 315.283 99.916 315.163 114.979C315.156 115.11 315.156 115.214 315.156 115.313C315.155 126.6 318.503 137.633 324.778 147.018C331.052 156.403 339.971 163.718 350.407 168.038C360.843 172.359 372.326 173.49 383.406 171.29C394.485 169.089 404.662 163.656 412.651 155.676C420.639 147.696 426.08 137.529 428.285 126.46C430.49 115.391 429.361 103.917 425.039 93.4891C420.718 83.0614 413.398 74.1482 404.007 67.8767C394.615 61.6052 383.573 58.2571 372.277 58.2557H372.262Z" fill="#E6E6E6"/>
<path d="M432.584 234.879H311.884C311.292 234.879 310.723 234.643 310.304 234.225C309.885 233.806 309.65 233.238 309.649 232.646V202.732C309.65 202.14 309.886 201.573 310.305 201.154C310.724 200.735 311.292 200.5 311.884 200.499H432.584C433.176 200.5 433.744 200.735 434.163 201.154C434.582 201.573 434.818 202.14 434.819 202.732V232.647C434.818 233.239 434.582 233.806 434.163 234.225C433.744 234.644 433.176 234.879 432.584 234.88V234.879ZM311.884 201.392C311.529 201.392 311.188 201.534 310.936 201.785C310.685 202.036 310.543 202.377 310.543 202.732V232.647C310.543 233.002 310.685 233.343 310.936 233.594C311.188 233.845 311.529 233.987 311.884 233.987H432.584C432.939 233.987 433.28 233.845 433.532 233.594C433.783 233.343 433.925 233.002 433.925 232.647V202.732C433.925 202.377 433.783 202.036 433.532 201.785C433.28 201.534 432.939 201.392 432.584 201.392H311.884Z" fill="#E6E6E6"/>
<path d="M349.211 211.436C348.796 211.436 348.398 211.601 348.105 211.894C347.812 212.187 347.647 212.585 347.647 213C347.647 213.414 347.812 213.812 348.105 214.105C348.398 214.398 348.796 214.563 349.211 214.563H422.972C423.177 214.571 423.382 214.538 423.575 214.467C423.767 214.396 423.944 214.287 424.095 214.148C424.246 214.008 424.368 213.84 424.453 213.654C424.539 213.467 424.588 213.266 424.595 213.06C424.603 212.855 424.571 212.65 424.499 212.458C424.428 212.265 424.319 212.089 424.18 211.938C424.04 211.787 423.872 211.666 423.685 211.58C423.499 211.494 423.297 211.446 423.091 211.438C423.069 211.437 423.046 211.437 423.023 211.437H349.211V211.436Z" fill="#E6E6E6"/>
<path d="M349.211 220.816C348.796 220.816 348.398 220.98 348.105 221.274C347.812 221.567 347.647 221.965 347.647 222.379C347.647 222.794 347.812 223.191 348.105 223.485C348.398 223.778 348.796 223.943 349.211 223.943H422.972C423.177 223.95 423.382 223.918 423.575 223.846C423.767 223.775 423.944 223.667 424.095 223.527C424.246 223.388 424.368 223.22 424.453 223.033C424.539 222.847 424.588 222.645 424.595 222.44C424.603 222.235 424.571 222.03 424.499 221.837C424.428 221.645 424.319 221.468 424.18 221.317C424.04 221.167 423.872 221.045 423.685 220.959C423.499 220.874 423.297 220.825 423.091 220.817C423.069 220.817 423.046 220.816 423.023 220.816H349.211V220.816Z" fill="#E6E6E6"/>
<path d="M432.584 284.904H311.884C311.292 284.904 310.723 284.668 310.304 284.25C309.885 283.831 309.65 283.263 309.649 282.671V252.757C309.65 252.165 309.886 251.597 310.305 251.179C310.724 250.76 311.292 250.525 311.884 250.524H432.584C433.176 250.525 433.744 250.76 434.163 251.179C434.582 251.597 434.818 252.165 434.819 252.757V282.672C434.818 283.264 434.582 283.831 434.163 284.25C433.744 284.668 433.176 284.903 432.584 284.904ZM311.884 251.417C311.529 251.417 311.188 251.559 310.936 251.81C310.685 252.061 310.543 252.402 310.543 252.757V282.672C310.543 283.027 310.685 283.368 310.936 283.619C311.188 283.87 311.529 284.012 311.884 284.012H432.584C432.939 284.012 433.28 283.87 433.532 283.619C433.783 283.368 433.925 283.027 433.925 282.672V252.757C433.925 252.402 433.783 252.061 433.532 251.81C433.28 251.559 432.939 251.417 432.584 251.417H311.884Z" fill="#E6E6E6"/>
<path d="M349.211 261.459C348.796 261.459 348.398 261.624 348.105 261.917C347.812 262.21 347.647 262.608 347.647 263.022C347.647 263.437 347.812 263.835 348.105 264.128C348.398 264.421 348.796 264.586 349.211 264.586H422.972C423.381 264.583 423.773 264.421 424.063 264.134C424.354 263.846 424.521 263.456 424.528 263.048C424.534 262.639 424.38 262.244 424.099 261.947C423.818 261.65 423.432 261.475 423.023 261.46H349.211V261.459Z" fill="#E6E6E6"/>
<path d="M349.211 270.841C348.796 270.841 348.398 271.006 348.105 271.299C347.812 271.592 347.647 271.99 347.647 272.404C347.647 272.819 347.812 273.217 348.105 273.51C348.398 273.803 348.796 273.968 349.211 273.968H422.972C423.381 273.965 423.773 273.803 424.063 273.516C424.354 273.228 424.521 272.838 424.528 272.43C424.534 272.021 424.38 271.626 424.099 271.329C423.818 271.032 423.432 270.857 423.023 270.842H349.211V270.841Z" fill="#E6E6E6"/>
<path d="M432.584 334.928H311.884C311.292 334.928 310.723 334.692 310.304 334.273C309.885 333.855 309.65 333.287 309.649 332.695V302.781C309.65 302.189 309.886 301.621 310.305 301.203C310.724 300.784 311.292 300.549 311.884 300.548H432.584C433.176 300.549 433.744 300.784 434.163 301.203C434.582 301.621 434.818 302.189 434.819 302.781V332.696C434.818 333.288 434.582 333.855 434.163 334.274C433.744 334.693 433.176 334.928 432.584 334.929V334.928ZM311.884 301.441C311.529 301.441 311.188 301.582 310.936 301.834C310.685 302.085 310.543 302.426 310.543 302.781V332.696C310.543 333.051 310.685 333.392 310.936 333.643C311.188 333.894 311.529 334.035 311.884 334.036H432.584C432.939 334.035 433.28 333.894 433.532 333.643C433.783 333.392 433.925 333.051 433.925 332.696V302.781C433.925 302.426 433.783 302.085 433.532 301.834C433.28 301.582 432.939 301.441 432.584 301.441H311.884Z" fill="#E6E6E6"/>
<path d="M349.211 311.485C348.796 311.485 348.398 311.649 348.105 311.943C347.812 312.236 347.647 312.633 347.647 313.048C347.647 313.463 347.812 313.86 348.105 314.153C348.398 314.447 348.796 314.611 349.211 314.611H422.972C423.177 314.619 423.382 314.587 423.575 314.515C423.767 314.444 423.944 314.336 424.095 314.196C424.246 314.056 424.368 313.889 424.453 313.702C424.539 313.516 424.588 313.314 424.595 313.109C424.603 312.904 424.571 312.699 424.499 312.506C424.428 312.314 424.319 312.137 424.18 311.986C424.04 311.836 423.872 311.714 423.685 311.628C423.499 311.542 423.297 311.494 423.091 311.486C423.069 311.485 423.046 311.485 423.023 311.485H349.211V311.485Z" fill="#E6E6E6"/>
<path d="M349.211 320.865C348.796 320.865 348.398 321.029 348.105 321.323C347.812 321.616 347.647 322.013 347.647 322.428C347.647 322.843 347.812 323.24 348.105 323.534C348.398 323.827 348.796 323.991 349.211 323.991H422.972C423.177 323.999 423.382 323.967 423.575 323.895C423.767 323.824 423.944 323.716 424.095 323.576C424.246 323.437 424.368 323.269 424.453 323.082C424.539 322.896 424.588 322.694 424.595 322.489C424.603 322.284 424.571 322.079 424.499 321.886C424.428 321.694 424.319 321.517 424.18 321.366C424.04 321.216 423.872 321.094 423.685 321.008C423.499 320.922 423.297 320.874 423.091 320.866C423.069 320.866 423.046 320.865 423.023 320.865H349.211V320.865Z" fill="#E6E6E6"/>
<path d="M390.695 113.899H373.682V96.9004H370.847V113.899H353.834V116.731H370.847V133.73H373.682V116.731H390.695V113.899Z" fill="#77B2D3"/>
<path d="M129.442 327.653C129.442 327.653 115.531 342.875 113.544 377.952C111.557 413.029 110.894 417 110.894 417H160.575L169.844 393.177L180.445 416.998H227.475C227.475 416.998 232.774 344.197 227.475 342.211C222.176 340.226 129.442 327.653 129.442 327.653Z" fill="#2F2E41"/>
<path d="M196.011 148.628C209.181 148.628 219.857 137.961 219.857 124.802C219.857 111.644 209.181 100.977 196.011 100.977C182.841 100.977 172.165 111.644 172.165 124.802C172.165 137.961 182.841 148.628 196.011 148.628Z" fill="#FFB8B8"/>
<path d="M299.015 328.318L262.583 262.134L241.384 227.719L266.557 216.467L280.467 243.602C280.467 243.602 299.015 270.737 303.651 293.24C308.287 315.743 312.925 326.332 312.925 326.332L299.015 328.318Z" fill="#FFB8B8"/>
<path d="M98.3043 309.122L152.621 261.47L149.974 223.084H134.739L130.1 242.939L86.3816 300.518L98.3043 309.122Z" fill="#FFB8B8"/>
<path d="M168.521 160.211C168.521 160.211 188.194 168.452 202.865 158.375C202.865 158.375 238.735 164.184 240.722 166.168C242.71 168.152 238.735 227.716 238.735 227.716L230.787 261.471C230.787 261.471 242.048 313.094 225.488 326.331L228.8 344.2C228.8 344.2 155.274 349.495 126.128 331.625L131.426 313.755L145.337 257.499L136.726 179.405C136.726 179.405 143.347 161.535 168.521 160.211Z" fill="#E4E4E4"/>
<path d="M223.832 169.145L241.054 166.5C241.054 166.5 249.666 167.824 257.614 184.37C265.563 200.916 274.175 222.756 274.175 222.756L244.367 235.992L219.858 197.606L223.832 169.145Z" fill="#E4E4E4"/>
<path d="M140.701 176.095L136.727 179.404C136.727 179.404 131.428 198.597 131.428 211.834V229.703L155.274 232.35L140.701 176.095Z" fill="#E4E4E4"/>
<path d="M172.171 131.268C172.171 131.268 168.93 127.771 169.258 123.393C169.474 120.902 169.315 118.393 168.785 115.95C168.785 115.95 169.8 108.784 171.298 104.63C172.796 100.476 171.533 99.0309 177.973 96.7632C184.412 94.4955 180.313 86.2952 199.298 92.8321C200.02 93.5605 200.942 94.059 201.947 94.2645C202.952 94.47 203.996 94.3734 204.946 93.9867C208.452 92.7041 210.564 97.5154 210.564 97.5154C210.564 97.5154 212.75 95.7229 213.977 97.5864C215.204 99.4498 221.137 95.2031 223.314 108.758C225.491 122.314 218.021 134.402 218.021 134.402C218.021 134.402 216.973 112.711 204.643 112.317C192.313 111.923 178.37 107.258 176.64 116.392C174.911 125.526 172.171 131.268 172.171 131.268Z" fill="#2F2E41"/>
<path d="M89.6156 319.259C95.2912 319.259 99.8923 314.662 99.8923 308.991C99.8923 303.32 95.2912 298.723 89.6156 298.723C83.9399 298.723 79.3389 303.32 79.3389 308.991C79.3389 314.662 83.9399 319.259 89.6156 319.259Z" fill="#FFB8B8"/>
<path d="M15.5295 378.341L184.781 344.585L170.637 273.789L1.38525 307.543L15.5295 378.341Z" fill="white"/>
<path d="M186.167 345.509L14.6058 379.728L0 306.621L171.561 272.404L186.167 345.509ZM16.4544 376.958L183.397 343.663L169.713 275.172L2.7706 308.468L16.4544 376.958Z" fill="#E4E4E4"/>
<path d="M70.7145 355.838L70.6451 355.867C70.0931 356.094 69.5338 356.309 68.9591 356.497C68.766 356.563 68.5657 356.624 68.3717 356.682C68.1777 356.741 67.9771 356.803 67.7762 356.857C67.4493 356.951 67.1146 357.034 66.7781 357.112C66.6341 357.149 66.4824 357.181 66.3371 357.212L66.2498 357.23C66.0695 357.269 65.8892 357.307 65.7076 357.339L65.2382 357.421C65.1509 357.44 65.0646 357.452 64.9796 357.464C61.2471 358.049 57.4304 357.781 53.8165 356.68C50.2026 355.579 46.8856 353.674 44.115 351.108C41.3443 348.541 39.192 345.381 37.82 341.863C36.4481 338.346 35.8921 334.564 36.1939 330.801C36.4957 327.038 37.6475 323.393 39.5626 320.139C41.4777 316.885 44.1063 314.107 47.2507 312.014C50.3951 309.922 53.9735 308.568 57.7167 308.056C61.4599 307.545 65.2706 307.887 68.8622 309.059C65.6117 311.993 63.1901 315.729 61.8401 319.892C60.4901 324.056 60.2591 328.501 61.1703 332.782C62.0816 337.062 64.103 341.029 67.032 344.283C69.9609 347.537 73.6946 349.965 77.8587 351.324C75.7532 353.225 73.3374 354.753 70.7161 355.84L70.7145 355.838Z" fill="#77B2D3"/>
<path d="M106.444 343.139C107.536 343.686 108.668 344.15 109.83 344.528C106.577 347.473 102.602 349.505 98.3082 350.417L97.994 350.484C94.2457 351.235 90.3748 351.118 86.679 350.14C82.9833 349.163 79.5613 347.351 76.6763 344.844C73.7914 342.338 71.5204 339.204 70.0382 335.683C68.5559 332.162 67.9019 328.348 68.1264 324.535C68.3509 320.722 69.448 317.011 71.3333 313.688C73.2185 310.365 75.8417 307.518 79.0008 305.367C82.16 303.216 85.771 301.817 89.556 301.279C93.341 300.742 97.199 301.078 100.833 302.264C97.8033 304.985 95.4863 308.405 94.0848 312.227C92.6833 316.049 92.2399 320.155 92.7933 324.188C93.3468 328.22 94.8803 332.056 97.2598 335.359C99.6394 338.663 102.792 341.334 106.444 343.139L106.444 343.139Z" fill="#77B2D3"/>
<path d="M149.518 314.009C150.547 318.839 150.118 323.866 148.287 328.453C146.456 333.04 143.305 336.982 139.231 339.78C135.158 342.578 130.346 344.106 125.404 344.171C120.461 344.236 115.61 342.836 111.465 340.146C107.319 337.457 104.064 333.6 102.113 329.063C100.161 324.525 99.5998 319.512 100.5 314.656C101.4 309.8 103.721 305.319 107.17 301.781C110.619 298.243 115.04 295.807 119.875 294.779C123.085 294.097 126.398 294.053 129.625 294.651C132.852 295.248 135.93 296.474 138.683 298.26C141.435 300.045 143.809 302.355 145.668 305.057C147.527 307.76 148.836 310.801 149.518 314.009Z" fill="#77B2D3"/>
<path d="M139.053 336.291C139.289 337.396 139.413 338.522 139.422 339.653C136.67 341.577 133.558 342.929 130.273 343.627C126.987 344.325 123.594 344.355 120.297 343.717C119.844 342.68 119.499 341.601 119.264 340.496C118.041 334.75 119.937 329.272 123.623 326.794C121.869 326.459 120.284 325.529 119.139 324.16C117.993 322.791 117.357 321.068 117.338 319.283C117.32 317.499 117.919 315.763 119.036 314.37C120.153 312.978 121.717 312.014 123.464 311.643C125.211 311.271 127.033 311.516 128.62 312.334C130.207 313.152 131.462 314.494 132.172 316.131C132.881 317.769 133.002 319.601 132.513 321.318C132.024 323.034 130.956 324.528 129.49 325.547C133.868 326.312 137.83 330.545 139.053 336.291Z" fill="white"/>
<path d="M106.444 343.141L106.46 343.216C106.67 344.604 106.765 346.007 106.745 347.411C104.156 349.225 101.262 349.749 97.9945 350.486L97.6803 350.553C94.3952 351.255 91.0017 351.285 87.7044 350.642C87.6597 350.547 87.6207 350.45 87.5878 350.351C87.1894 349.406 86.8829 348.425 86.6724 347.421C85.4495 341.676 87.3449 336.198 91.0315 333.719C89.277 333.385 87.6924 332.455 86.5466 331.086C85.4008 329.717 84.7645 327.994 84.7458 326.21C84.7271 324.425 85.327 322.689 86.4438 321.297C87.5606 319.904 89.1254 318.941 90.8724 318.57C91.4644 318.442 92.0697 318.387 92.675 318.406C92.1913 323.437 93.2491 328.497 95.7081 332.914C98.1671 337.332 101.911 340.898 106.445 343.142L106.444 343.141Z" fill="white"/>
<path d="M75.0911 350.234C75.2896 351.229 75.393 352.241 75.4 353.256C73.422 354.643 71.2526 355.734 68.96 356.497C68.7667 356.562 68.5666 356.623 68.3726 356.681C68.1786 356.74 67.978 356.802 67.7772 356.856C67.4502 356.951 67.1155 357.034 66.7791 357.111C66.7102 357.132 66.635 357.148 66.5649 357.163L66.2508 357.229C66.0704 357.268 65.8901 357.306 65.7085 357.339L65.2391 357.42C65.1518 357.439 65.0656 357.451 64.9805 357.463C62.0929 357.929 59.1456 357.881 56.275 357.32C56.2674 357.308 56.2625 357.294 56.2606 357.28C56.2206 357.199 56.1865 357.114 56.1583 357.028C55.76 356.083 55.4534 355.102 55.243 354.098C54.02 348.353 55.9155 342.875 59.6021 340.397C57.8476 340.063 56.2629 339.132 55.1171 337.763C53.9714 336.394 53.3351 334.671 53.3163 332.887C53.2976 331.103 53.8976 329.367 55.0144 327.974C56.1311 326.582 57.6959 325.618 59.443 325.247C59.8622 325.157 60.2883 325.103 60.7166 325.086C60.1957 330.251 61.3006 335.45 63.8773 339.957C66.4541 344.465 70.3743 348.057 75.0915 350.233L75.0911 350.234Z" fill="white"/>
<path d="M332.588 222.176C332.589 222.742 332.532 223.305 332.419 223.859C330.872 224.515 329.21 224.852 327.53 224.852C325.85 224.852 324.188 224.515 322.641 223.859C322.528 223.305 322.471 222.742 322.471 222.176C322.471 219.239 323.968 216.757 326.03 215.927C325.207 215.581 324.529 214.961 324.111 214.173C323.693 213.384 323.561 212.475 323.738 211.6C323.914 210.726 324.389 209.939 325.08 209.374C325.771 208.809 326.636 208.5 327.53 208.5C328.423 208.5 329.288 208.809 329.98 209.374C330.671 209.939 331.145 210.726 331.321 211.6C331.498 212.475 331.366 213.384 330.948 214.173C330.531 214.961 329.852 215.581 329.029 215.927C331.092 216.757 332.588 219.239 332.588 222.176Z" fill="#77B2D3"/>
<path d="M332.588 273.215C332.589 273.78 332.532 274.344 332.419 274.898C330.872 275.553 329.21 275.891 327.53 275.891C325.85 275.891 324.188 275.553 322.641 274.898C322.528 274.344 322.471 273.78 322.471 273.215C322.471 270.278 323.968 267.795 326.03 266.966C325.207 266.62 324.529 266 324.111 265.211C323.693 264.422 323.561 263.513 323.738 262.639C323.914 261.764 324.389 260.977 325.08 260.412C325.771 259.847 326.636 259.538 327.53 259.538C328.423 259.538 329.288 259.847 329.98 260.412C330.671 260.977 331.145 261.764 331.321 262.639C331.498 263.513 331.366 264.422 330.948 265.211C330.531 266 329.852 266.62 329.029 266.966C331.092 267.795 332.588 270.278 332.588 273.215Z" fill="#77B2D3"/>
<path d="M332.588 323.238C332.589 323.803 332.532 324.367 332.419 324.921C330.872 325.576 329.21 325.914 327.53 325.914C325.85 325.914 324.188 325.576 322.641 324.921C322.528 324.367 322.471 323.803 322.471 323.238C322.471 320.301 323.968 317.818 326.03 316.989C325.207 316.643 324.529 316.023 324.111 315.234C323.693 314.446 323.561 313.537 323.738 312.662C323.914 311.787 324.389 311 325.08 310.435C325.771 309.87 326.636 309.561 327.53 309.561C328.423 309.561 329.288 309.87 329.98 310.435C330.671 311 331.145 311.787 331.321 312.662C331.498 313.537 331.366 314.446 330.948 315.234C330.531 316.023 329.852 316.643 329.029 316.989C331.092 317.818 332.588 320.301 332.588 323.238Z" fill="#77B2D3"/>
<path d="M306.601 340.381C311.79 340.381 315.997 336.178 315.997 330.993C315.997 325.809 311.79 321.606 306.601 321.606C301.412 321.606 297.205 325.809 297.205 330.993C297.205 336.178 301.412 340.381 306.601 340.381Z" fill="#FFB8B8"/>
</g>
<defs>
<clipPath id="clip0_16_808">
<rect width="476" height="417" fill="white"/>
</clipPath>
</defs>
</svg>
