<svg width="117" height="19" viewBox="0 0 117 19" fill="none" xmlns="http://www.w3.org/2000/svg">
<path d="M18.9802 0.0020752H0.981934V3.60169H18.9802V0.0020752Z" fill="#FCB53B"/>
<path d="M18.9802 7.20105H0.981934V10.8009H18.9802V7.20105Z" fill="#F57F29"/>
<path d="M18.9802 14.4005H0.981934V18.0001H18.9802V14.4005Z" fill="#E32213"/>
<path d="M100.984 0.00402832V3.59809H110.937L100.991 14.4042V18.0021H116.179V14.4042H106.087L116.179 3.60147V0.00402832H100.984Z" fill="black"/>
<path d="M89.893 3.60485L92.7357 10.7973H87.0424L89.893 3.60485ZM87.1348 0.00402832L80.2256 18.0021H84.352L85.7031 14.3948L94.083 14.3979L95.4338 18.0021H99.5383L92.2273 0.00402832H87.1348Z" fill="black"/>
<path d="M57.1298 0.00402832L51.8459 12.9623L46.8182 0.00402832H42.3535L49.9122 18.0021H53.8267L61.3386 0.00402832H57.1298Z" fill="black"/>
<path d="M26.1777 0.00402832V18.0021H40.9441V14.4047L29.7872 14.3986V10.8014H40.9441V7.19456H29.7872V3.60606L40.9441 3.59447V0.00402832H26.1777Z" fill="black"/>
<path d="M74.5029 10.4658C76.7038 9.65362 78.0798 7.63881 78.0798 5.34635C78.0798 2.41794 75.6171 0.00402832 72.7102 0.00402832H69.9406H62.7817V18.0021H66.3833V10.7865H70.6295L74.669 17.9936H78.9912L74.5029 10.4658ZM72.5424 7.20519H66.3782V3.66424H72.5424C73.5205 3.66424 74.3131 4.45689 74.3131 5.43496C74.3131 6.41254 73.5205 7.20519 72.5424 7.20519Z" fill="black"/>
</svg>
