<?xml version="1.0" standalone="no"?>
<!DOCTYPE svg PUBLIC "-//W3C//DTD SVG 20010904//EN"
 "http://www.w3.org/TR/2001/REC-SVG-20010904/DTD/svg10.dtd">
<svg version="1.0" xmlns="http://www.w3.org/2000/svg"
 width="700.000000pt" height="700.000000pt" viewBox="0 0 700.000000 700.000000"
 preserveAspectRatio="xMidYMid meet">
<metadata>
Created by potrace 1.14, written by Peter Selinger 2001-2017
</metadata>
<g transform="translate(0.000000,700.000000) scale(0.100000,-0.100000)"
fill="#000000" stroke="none">
<path d="M6297 6744 c-1 -1 -36 -5 -77 -9 -109 -10 -117 -11 -207 -29 -254
-52 -512 -177 -775 -375 -81 -61 -329 -263 -382 -313 -18 -17 -21 -16 -75 30
-249 213 -531 364 -861 461 -114 34 -313 76 -400 86 -30 4 -57 8 -60 10 -13 8
-262 19 -425 19 -220 0 -341 -8 -505 -35 -36 -6 -78 -13 -95 -16 -16 -2 -68
-14 -115 -25 -47 -11 -92 -21 -100 -23 -8 -2 -60 -18 -115 -35 -619 -199
-1107 -587 -1445 -1150 -122 -202 -282 -562 -316 -712 -2 -10 -6 -26 -8 -36
-2 -9 -9 -37 -16 -62 -13 -48 -14 -54 -31 -145 -29 -159 -43 -308 -43 -470 0
-109 12 -333 18 -343 2 -4 6 -29 10 -57 34 -275 146 -611 294 -884 77 -141 79
-144 144 -239 266 -386 650 -714 1053 -902 100 -46 284 -120 301 -120 14 0 16
-10 16 -65 -5 -396 -3 -433 29 -554 60 -224 202 -369 419 -427 99 -26 292 -24
395 5 151 42 263 130 329 259 l17 33 26 -51 c36 -72 128 -161 205 -198 106
-51 176 -65 338 -65 161 -1 260 16 358 61 67 30 158 118 186 180 l19 42 25
-37 c83 -126 237 -218 401 -239 360 -47 623 93 720 382 11 33 23 74 25 90 3
16 10 51 15 78 9 50 6 2679 -4 3096 -5 207 -8 252 -19 350 -13 107 -17 136
-22 158 -3 13 -7 43 -10 65 -5 33 -73 311 -95 386 -5 15 8 18 101 26 201 17
339 56 505 142 261 136 508 392 655 676 69 135 105 232 130 351 65 317 -47
550 -297 615 -34 9 -228 21 -236 15z"/>
</g>
</svg>
